{
	"asset":{
		"generator":"Khronos glTF Blender I/O v5.1.20",
		"version":"2.0"
	},
	"extensionsUsed":[
		"KHR_materials_specular"
	],
	"scene":0,
	"scenes":[
		{
			"extras":{
				"ypui":{
					"expand_channels":0,
					"expand_mask_channels":0,
					"show_bake_targets":0,
					"show_channels":1,
					"show_layers":1,
					"show_materials":0,
					"show_object":0,
					"show_stats":0,
					"show_support":0,
					"show_test":0,
					"tree_name":""
				}
			},
			"name":"Scene",
			"nodes":[
				0,
				1,
				2,
				3,
				4,
				5,
				6,
				7,
				8,
				9,
				10,
				11,
				12,
				13,
				14,
				15,
				16,
				17,
				18,
				19,
				20,
				21,
				22,
				23,
				24,
				25,
				26,
				27,
				28,
				29
			]
		}
	],
	"nodes":[
		{
			"extras":{
				"yp_decal":{}
			},
			"mesh":0,
			"name":"BODY",
			"scale":[
				0.5585857629776001,
				0.7189903855323792,
				0.5585857629776001
			],
			"translation":[
				-2.1495590209960938,
				4.04549503326416,
				0
			]
		},
		{
			"mesh":1,
			"name":"EYEBALL",
			"rotation":[
				0.7138274908065796,
				0.13334840536117554,
				-0.15510471165180206,
				0.6697843670845032
			],
			"scale":[
				0.03652319312095642,
				0.04493945837020874,
				0.04493945464491844
			],
			"translation":[
				-2.000986337661743,
				5.186924934387207,
				0.2234724760055542
			]
		},
		{
			"mesh":2,
			"name":"armwarmers",
			"rotation":[
				0.034083470702171326,
				0,
				0,
				0.9994189739227295
			],
			"scale":[
				0.6101651191711426,
				0.7853813171386719,
				0.6101651191711426
			],
			"translation":[
				-1.4437921047210693,
				4.0857391357421875,
				0.031397853046655655
			]
		},
		{
			"mesh":3,
			"name":"ribbonbelt",
			"translation":[
				-1.629524827003479,
				3.0780181884765625,
				0.2495741844177246
			]
		},
		{
			"mesh":4,
			"name":"hands",
			"rotation":[
				0.51570063829422,
				-0.18179009854793549,
				-0.2833481431007385,
				0.7878572940826416
			],
			"translation":[
				-0.5979588031768799,
				3.0758750438690186,
				0.04557328671216965
			]
		},
		{
			"mesh":5,
			"name":"13",
			"rotation":[
				0,
				0.11551664769649506,
				0,
				0.9933055639266968
			],
			"scale":[
				1.273033857345581,
				1.273033857345581,
				1.273033857345581
			],
			"translation":[
				-1.8092637062072754,
				5.525659084320068,
				-0.034221354871988297
			]
		},
		{
			"mesh":6,
			"name":"EYEBROW",
			"translation":[
				-2.165623188018799,
				5.71754789352417,
				0.23719236254692078
			]
		},
		{
			"extras":{
				"yp_decal":{}
			},
			"mesh":7,
			"name":"EYELASH",
			"rotation":[
				0,
				0.22483088076114655,
				0,
				0.9743978381156921
			],
			"translation":[
				-1.972771167755127,
				5.221414089202881,
				0.28795385360717773
			]
		},
		{
			"mesh":8,
			"name":"bluetie",
			"rotation":[
				0,
				0,
				0.014102313667535782,
				0.9999005794525146
			],
			"translation":[
				-2.1470046043395996,
				4.680628776550293,
				0.25252100825309753
			]
		},
		{
			"mesh":9,
			"name":"tiepin",
			"translation":[
				-2.24794864654541,
				4.121396541595459,
				0.509507954120636
			]
		},
		{
			"mesh":10,
			"name":"tiepin1",
			"translation":[
				-2.247328042984009,
				4.072363376617432,
				0.509507954120636
			]
		},
		{
			"mesh":11,
			"name":"scalp",
			"rotation":[
				0.1470613032579422,
				0,
				0,
				0.9891273975372314
			],
			"scale":[
				0.2990957796573639,
				0.2990958094596863,
				0.2990958094596863
			],
			"translation":[
				-2.1548268795013428,
				5.33124303817749,
				0.02697981894016266
			]
		},
		{
			"mesh":12,
			"name":"EYELID",
			"rotation":[
				0.14684921503067017,
				0.1491856873035431,
				0.02241007424890995,
				0.9775871634483337
			],
			"scale":[
				0.7214933633804321,
				0.7214933633804321,
				0.7214933633804321
			],
			"translation":[
				-2.040482521057129,
				5.262884616851807,
				0.28483664989471436
			]
		},
		{
			"mesh":13,
			"name":"shirt",
			"translation":[
				-1.9252214431762695,
				3.987701892852783,
				0.16754435002803802
			]
		},
		{
			"mesh":14,
			"name":"skirt",
			"rotation":[
				0.037566933780908585,
				0,
				0,
				0.9992942214012146
			],
			"scale":[
				0.7299244999885559,
				0.6593678593635559,
				0.6789169311523438
			],
			"translation":[
				-2.1540727615356445,
				3.3237099647521973,
				0.16622041165828705
			]
		},
		{
			"extras":{
				"yp_decal":{}
			},
			"mesh":15,
			"name":"shoes",
			"scale":[
				1.184607982635498,
				1,
				1
			],
			"translation":[
				-1.865947961807251,
				0.24763774871826172,
				0.025314703583717346
			]
		},
		{
			"mesh":16,
			"name":"Sphere",
			"scale":[
				0.9498171806335449,
				0.9498171806335449,
				0.9498171806335449
			],
			"translation":[
				-2.1486704349517822,
				5.395186424255371,
				0.07232370972633362
			]
		},
		{
			"mesh":17,
			"name":"Vert.004",
			"rotation":[
				0,
				-0.11967997997999191,
				0,
				0.9928125143051147
			],
			"translation":[
				-2.164241075515747,
				5.404844284057617,
				0.3708418905735016
			]
		},
		{
			"extras":{
				"yp_decal":{}
			},
			"mesh":18,
			"name":"Vert.005",
			"rotation":[
				0,
				0.4190254807472229,
				0,
				0.9079744815826416
			],
			"translation":[
				-2.129896640777588,
				5.579858779907227,
				0.23242849111557007
			]
		},
		{
			"mesh":19,
			"name":"Vert.006",
			"rotation":[
				0,
				-0.47404879331588745,
				0,
				0.8804985880851746
			],
			"translation":[
				-2.4628264904022217,
				5.382894515991211,
				0.1549607813358307
			]
		},
		{
			"mesh":20,
			"name":"Vert.007",
			"rotation":[
				0,
				-0.224100261926651,
				0,
				0.9745661020278931
			],
			"translation":[
				-2.289990186691284,
				5.697640895843506,
				0.23927569389343262
			]
		},
		{
			"mesh":21,
			"name":"Vert.008",
			"translation":[
				-2.300626516342163,
				5.6694016456604,
				0.23242853581905365
			]
		},
		{
			"mesh":22,
			"name":"Vert.009",
			"rotation":[
				0,
				-0.47404879331588745,
				0,
				0.8804985880851746
			],
			"translation":[
				-2.4277119636535645,
				5.27041482925415,
				0.22840745747089386
			]
		},
		{
			"mesh":23,
			"name":"Vert.010",
			"rotation":[
				-0.6346043944358826,
				0,
				0,
				0.7728371620178223
			],
			"translation":[
				-2.165623188018799,
				5.73815393447876,
				0.17993594706058502
			]
		},
		{
			"mesh":24,
			"name":"Vert.011",
			"translation":[
				-2.165623188018799,
				5.71754789352417,
				-0.1818932294845581
			]
		},
		{
			"mesh":25,
			"name":"Vert.012",
			"translation":[
				-2.199713945388794,
				5.753890037536621,
				0.3003831207752228
			]
		},
		{
			"mesh":26,
			"name":"Vert.013",
			"rotation":[
				0.8728904724121094,
				0,
				0,
				0.4879164397716522
			],
			"translation":[
				-2.165623188018799,
				5.73815393447876,
				0.23242852091789246
			]
		},
		{
			"mesh":27,
			"name":"Vert.021",
			"rotation":[
				-0.47572916746139526,
				0,
				0,
				0.8795918226242065
			],
			"translation":[
				-2.1548268795013428,
				5.743460178375244,
				0.10395631194114685
			]
		},
		{
			"mesh":28,
			"name":"Sphere.002",
			"rotation":[
				0.009761632420122623,
				-0.0011034448398277164,
				-0.7387856245040894,
				0.6738689541816711
			],
			"scale":[
				0.13913901150226593,
				0.13913901150226593,
				0.11754560470581055
			],
			"translation":[
				-1.8773924112319946,
				5.186502456665039,
				0.02368752285838127
			]
		},
		{
			"mesh":29,
			"name":"Vert.022",
			"rotation":[
				0.2766183018684387,
				0.19202500581741333,
				-0.056514039635658264,
				0.9399015307426453
			],
			"translation":[
				-2.429514169692993,
				5.085108757019043,
				0.10036876797676086
			]
		}
	],
	"materials":[
		{
			"doubleSided":true,
			"extras":{
				"yp":{
					"active_ypaint_node":"",
					"expand_content":0
				}
			},
			"name":"imagetexture",
			"pbrMetallicRoughness":{
				"baseColorTexture":{
					"index":0
				},
				"metallicFactor":0,
				"roughnessFactor":0.5
			}
		},
		{
			"doubleSided":true,
			"extensions":{
				"KHR_materials_specular":{
					"specularColorFactor":[
						0.800000011920929,
						0.800000011920929,
						0.800000011920929
					]
				}
			},
			"extras":{
				"yp":{
					"active_ypaint_node":"",
					"expand_content":0
				}
			},
			"name":"imagetexture.001",
			"pbrMetallicRoughness":{
				"baseColorTexture":{
					"index":1
				},
				"metallicFactor":0,
				"roughnessFactor":0.5
			}
		}
	],
	"meshes":[
		{
			"name":"Cube.002",
			"primitives":[
				{
					"attributes":{
						"POSITION":0,
						"NORMAL":1,
						"TEXCOORD_0":2
					},
					"indices":3,
					"material":0
				}
			]
		},
		{
			"name":"Circle.001",
			"primitives":[
				{
					"attributes":{
						"POSITION":4,
						"NORMAL":5,
						"TEXCOORD_0":6
					},
					"indices":7,
					"material":0
				}
			]
		},
		{
			"name":"Cube.001",
			"primitives":[
				{
					"attributes":{
						"POSITION":8,
						"NORMAL":9,
						"TEXCOORD_0":10
					},
					"indices":11,
					"material":0
				}
			]
		},
		{
			"name":"Vert.003",
			"primitives":[
				{
					"attributes":{
						"POSITION":12,
						"NORMAL":13,
						"TEXCOORD_0":14
					},
					"indices":15,
					"material":0
				}
			]
		},
		{
			"name":"Cube",
			"primitives":[
				{
					"attributes":{
						"POSITION":16,
						"NORMAL":17,
						"TEXCOORD_0":18
					},
					"indices":19,
					"material":0
				}
			]
		},
		{
			"name":"Vert.014",
			"primitives":[
				{
					"attributes":{
						"POSITION":20,
						"NORMAL":21,
						"TEXCOORD_0":22
					},
					"indices":23,
					"material":0
				}
			]
		},
		{
			"name":"Vert.015",
			"primitives":[
				{
					"attributes":{
						"POSITION":24,
						"NORMAL":25,
						"TEXCOORD_0":26
					},
					"indices":27,
					"material":0
				}
			]
		},
		{
			"name":"Vert.016",
			"primitives":[
				{
					"attributes":{
						"POSITION":28,
						"NORMAL":29,
						"TEXCOORD_0":30
					},
					"indices":31,
					"material":1
				}
			]
		},
		{
			"name":"Vert.017",
			"primitives":[
				{
					"attributes":{
						"POSITION":32,
						"NORMAL":33,
						"TEXCOORD_0":34
					},
					"indices":35,
					"material":0
				}
			]
		},
		{
			"name":"Vert.018",
			"primitives":[
				{
					"attributes":{
						"POSITION":36,
						"NORMAL":37,
						"TEXCOORD_0":38
					},
					"indices":39,
					"material":0
				}
			]
		},
		{
			"name":"Vert.019",
			"primitives":[
				{
					"attributes":{
						"POSITION":40,
						"NORMAL":41,
						"TEXCOORD_0":42
					},
					"indices":43,
					"material":0
				}
			]
		},
		{
			"name":"Sphere",
			"primitives":[
				{
					"attributes":{
						"POSITION":44,
						"NORMAL":45,
						"TEXCOORD_0":46
					},
					"indices":47,
					"material":0
				}
			]
		},
		{
			"name":"Vert.020",
			"primitives":[
				{
					"attributes":{
						"POSITION":48,
						"NORMAL":49,
						"TEXCOORD_0":50
					},
					"indices":51,
					"material":0
				}
			]
		},
		{
			"name":"Vert.001",
			"primitives":[
				{
					"attributes":{
						"POSITION":52,
						"NORMAL":53,
						"TEXCOORD_0":54
					},
					"indices":55,
					"material":0
				}
			]
		},
		{
			"name":"Circle",
			"primitives":[
				{
					"attributes":{
						"POSITION":56,
						"NORMAL":57,
						"TEXCOORD_0":58
					},
					"indices":59,
					"material":0
				}
			]
		},
		{
			"name":"Vert",
			"primitives":[
				{
					"attributes":{
						"POSITION":60,
						"NORMAL":61,
						"TEXCOORD_0":62
					},
					"indices":63,
					"material":0
				}
			]
		},
		{
			"name":"Sphere.001",
			"primitives":[
				{
					"attributes":{
						"POSITION":64,
						"NORMAL":65,
						"TEXCOORD_0":66
					},
					"indices":67,
					"material":0
				}
			]
		},
		{
			"name":"Vert.004",
			"primitives":[
				{
					"attributes":{
						"POSITION":68,
						"NORMAL":69,
						"TEXCOORD_0":70
					},
					"indices":71,
					"material":0
				}
			]
		},
		{
			"name":"Vert.005",
			"primitives":[
				{
					"attributes":{
						"POSITION":72,
						"NORMAL":73,
						"TEXCOORD_0":74
					},
					"indices":75,
					"material":0
				}
			]
		},
		{
			"name":"Vert.006",
			"primitives":[
				{
					"attributes":{
						"POSITION":76,
						"NORMAL":77,
						"TEXCOORD_0":78
					},
					"indices":79,
					"material":0
				}
			]
		},
		{
			"name":"Vert.007",
			"primitives":[
				{
					"attributes":{
						"POSITION":80,
						"NORMAL":81,
						"TEXCOORD_0":82
					},
					"indices":83,
					"material":0
				}
			]
		},
		{
			"name":"Vert.008",
			"primitives":[
				{
					"attributes":{
						"POSITION":84,
						"NORMAL":85,
						"TEXCOORD_0":86
					},
					"indices":87,
					"material":0
				}
			]
		},
		{
			"name":"Vert.009",
			"primitives":[
				{
					"attributes":{
						"POSITION":88,
						"NORMAL":89,
						"TEXCOORD_0":90
					},
					"indices":91,
					"material":0
				}
			]
		},
		{
			"name":"Vert.010",
			"primitives":[
				{
					"attributes":{
						"POSITION":92,
						"NORMAL":93,
						"TEXCOORD_0":94
					},
					"indices":95,
					"material":0
				}
			]
		},
		{
			"name":"Vert.011",
			"primitives":[
				{
					"attributes":{
						"POSITION":96,
						"NORMAL":97,
						"TEXCOORD_0":98
					},
					"indices":99,
					"material":0
				}
			]
		},
		{
			"name":"Vert.012",
			"primitives":[
				{
					"attributes":{
						"POSITION":100,
						"NORMAL":101,
						"TEXCOORD_0":102
					},
					"indices":103,
					"material":0
				}
			]
		},
		{
			"name":"Vert.013",
			"primitives":[
				{
					"attributes":{
						"POSITION":104,
						"NORMAL":105,
						"TEXCOORD_0":106
					},
					"indices":107,
					"material":0
				}
			]
		},
		{
			"name":"Vert.021",
			"primitives":[
				{
					"attributes":{
						"POSITION":108,
						"NORMAL":109,
						"TEXCOORD_0":110
					},
					"indices":111,
					"material":0
				}
			]
		},
		{
			"name":"Sphere.002",
			"primitives":[
				{
					"attributes":{
						"POSITION":112,
						"NORMAL":113,
						"TEXCOORD_0":114
					},
					"indices":115,
					"material":0
				}
			]
		},
		{
			"name":"Vert.022",
			"primitives":[
				{
					"attributes":{
						"POSITION":116,
						"NORMAL":117,
						"TEXCOORD_0":118
					},
					"indices":119,
					"material":0
				}
			]
		}
	],
	"textures":[
		{
			"sampler":0,
			"source":0
		},
		{
			"sampler":0,
			"source":0
		}
	],
	"images":[
		{
			"mimeType":"image/png",
			"name":"Untitled design (6)",
			"uri":"miku.png"
		}
	],
	"accessors":[
		{
			"bufferView":0,
			"componentType":5126,
			"count":1117,
			"max":[
				1.4261852502822876,
				2.167177438735962,
				0.9355575442314148
			],
			"min":[
				-1.4261852502822876,
				-5.044718265533447,
				-0.5133653283119202
			],
			"type":"VEC3"
		},
		{
			"bufferView":1,
			"componentType":5126,
			"count":1117,
			"type":"VEC3"
		},
		{
			"bufferView":2,
			"componentType":5126,
			"count":1117,
			"type":"VEC2"
		},
		{
			"bufferView":3,
			"componentType":5123,
			"count":4956,
			"type":"SCALAR"
		},
		{
			"bufferView":4,
			"componentType":5126,
			"count":322,
			"max":[
				1.3792701959609985,
				0.8553569316864014,
				1.775913119316101
			],
			"min":[
				-8.965094566345215,
				-3.101100206375122,
				-1.50399911403656
			],
			"type":"VEC3"
		},
		{
			"bufferView":5,
			"componentType":5126,
			"count":322,
			"type":"VEC3"
		},
		{
			"bufferView":6,
			"componentType":5126,
			"count":322,
			"type":"VEC2"
		},
		{
			"bufferView":7,
			"componentType":5123,
			"count":1728,
			"type":"SCALAR"
		},
		{
			"bufferView":8,
			"componentType":5126,
			"count":400,
			"max":[
				1.3495147228240967,
				0.3938246965408325,
				0.4018922746181488
			],
			"min":[
				-3.6628785133361816,
				-1.2328177690505981,
				-0.37164580821990967
			],
			"type":"VEC3"
		},
		{
			"bufferView":9,
			"componentType":5126,
			"count":400,
			"type":"VEC3"
		},
		{
			"bufferView":10,
			"componentType":5126,
			"count":400,
			"type":"VEC2"
		},
		{
			"bufferView":11,
			"componentType":5123,
			"count":1920,
			"type":"SCALAR"
		},
		{
			"bufferView":12,
			"componentType":5126,
			"count":66,
			"max":[
				0.21209116280078888,
				0.35806021094322205,
				0.2223695069551468
			],
			"min":[
				-0.20748993754386902,
				-0.3104426860809326,
				-0.3203542232513428
			],
			"type":"VEC3"
		},
		{
			"bufferView":13,
			"componentType":5126,
			"count":66,
			"type":"VEC3"
		},
		{
			"bufferView":14,
			"componentType":5126,
			"count":66,
			"type":"VEC2"
		},
		{
			"bufferView":15,
			"componentType":5123,
			"count":252,
			"type":"SCALAR"
		},
		{
			"bufferView":16,
			"componentType":5126,
			"count":1072,
			"max":[
				0.33571919798851013,
				0.07537760585546494,
				2.058133125305176
			],
			"min":[
				-2.485818862915039,
				-1.1209633350372314,
				-0.16169053316116333
			],
			"type":"VEC3"
		},
		{
			"bufferView":17,
			"componentType":5126,
			"count":1072,
			"type":"VEC3"
		},
		{
			"bufferView":18,
			"componentType":5126,
			"count":1072,
			"type":"VEC2"
		},
		{
			"bufferView":19,
			"componentType":5123,
			"count":3564,
			"type":"SCALAR"
		},
		{
			"bufferView":20,
			"componentType":5126,
			"count":724,
			"max":[
				0.08251722157001495,
				0.18556074798107147,
				0.03418745845556259
			],
			"min":[
				-0.6094511151313782,
				-0.16135449707508087,
				-0.33538225293159485
			],
			"type":"VEC3"
		},
		{
			"bufferView":21,
			"componentType":5126,
			"count":724,
			"type":"VEC3"
		},
		{
			"bufferView":22,
			"componentType":5126,
			"count":724,
			"type":"VEC2"
		},
		{
			"bufferView":23,
			"componentType":5123,
			"count":1296,
			"type":"SCALAR"
		},
		{
			"bufferView":24,
			"componentType":5126,
			"count":48,
			"max":[
				0.23487289249897003,
				-0.3629770874977112,
				0.11263390630483627
			],
			"min":[
				-0.20274442434310913,
				-0.40566813945770264,
				-0.003139648586511612
			],
			"type":"VEC3"
		},
		{
			"bufferView":25,
			"componentType":5126,
			"count":48,
			"type":"VEC3"
		},
		{
			"bufferView":26,
			"componentType":5126,
			"count":48,
			"type":"VEC2"
		},
		{
			"bufferView":27,
			"componentType":5123,
			"count":264,
			"type":"SCALAR"
		},
		{
			"bufferView":28,
			"componentType":5126,
			"count":156,
			"max":[
				0.12816490232944489,
				0.04236305505037308,
				-0.03440334275364876
			],
			"min":[
				-0.3571617007255554,
				-0.07567038387060165,
				-0.2882933020591736
			],
			"type":"VEC3"
		},
		{
			"bufferView":29,
			"componentType":5126,
			"count":156,
			"type":"VEC3"
		},
		{
			"bufferView":30,
			"componentType":5126,
			"count":156,
			"type":"VEC2"
		},
		{
			"bufferView":31,
			"componentType":5123,
			"count":600,
			"type":"SCALAR"
		},
		{
			"bufferView":32,
			"componentType":5126,
			"count":52,
			"max":[
				0.062691330909729,
				0.025744490325450897,
				0.2961159944534302
			],
			"min":[
				-0.1429934948682785,
				-1.1819192171096802,
				-0.006333004683256149
			],
			"type":"VEC3"
		},
		{
			"bufferView":33,
			"componentType":5126,
			"count":52,
			"type":"VEC3"
		},
		{
			"bufferView":34,
			"componentType":5126,
			"count":52,
			"type":"VEC2"
		},
		{
			"bufferView":35,
			"componentType":5123,
			"count":300,
			"type":"SCALAR"
		},
		{
			"bufferView":36,
			"componentType":5126,
			"count":52,
			"max":[
				0.13835524022579193,
				0.0027903132140636444,
				0.03424344211816788
			],
			"min":[
				0.015015363693237305,
				-0.028769880533218384,
				0.026295561343431473
			],
			"type":"VEC3"
		},
		{
			"bufferView":37,
			"componentType":5126,
			"count":52,
			"type":"VEC3"
		},
		{
			"bufferView":38,
			"componentType":5126,
			"count":52,
			"type":"VEC2"
		},
		{
			"bufferView":39,
			"componentType":5123,
			"count":84,
			"type":"SCALAR"
		},
		{
			"bufferView":40,
			"componentType":5126,
			"count":52,
			"max":[
				0.13835524022579193,
				0.0028500789776444435,
				0.03666365146636963
			],
			"min":[
				0.015015363693237305,
				-0.02871011570096016,
				0.028715774416923523
			],
			"type":"VEC3"
		},
		{
			"bufferView":41,
			"componentType":5126,
			"count":52,
			"type":"VEC3"
		},
		{
			"bufferView":42,
			"componentType":5126,
			"count":52,
			"type":"VEC2"
		},
		{
			"bufferView":43,
			"componentType":5123,
			"count":84,
			"type":"SCALAR"
		},
		{
			"bufferView":44,
			"componentType":5126,
			"count":179,
			"max":[
				0.982279360294342,
				1.0572516918182373,
				0.40952804684638977
			],
			"min":[
				-0.9470535516738892,
				-0.21128664910793304,
				-1.027169942855835
			],
			"type":"VEC3"
		},
		{
			"bufferView":45,
			"componentType":5126,
			"count":179,
			"type":"VEC3"
		},
		{
			"bufferView":46,
			"componentType":5126,
			"count":179,
			"type":"VEC2"
		},
		{
			"bufferView":47,
			"componentType":5123,
			"count":915,
			"type":"SCALAR"
		},
		{
			"bufferView":48,
			"componentType":5126,
			"count":48,
			"max":[
				0.07023204863071442,
				0.01906508207321167,
				0.021686455234885216
			],
			"min":[
				-0.34318995475769043,
				-0.019715750589966774,
				-0.13962581753730774
			],
			"type":"VEC3"
		},
		{
			"bufferView":49,
			"componentType":5126,
			"count":48,
			"type":"VEC3"
		},
		{
			"bufferView":50,
			"componentType":5126,
			"count":48,
			"type":"VEC2"
		},
		{
			"bufferView":51,
			"componentType":5123,
			"count":264,
			"type":"SCALAR"
		},
		{
			"bufferView":52,
			"componentType":5126,
			"count":909,
			"max":[
				0.33633115887641907,
				0.8183505535125732,
				0.365681529045105
			],
			"min":[
				-0.7850062847137451,
				-0.9116489887237549,
				-0.4343686103820801
			],
			"type":"VEC3"
		},
		{
			"bufferView":53,
			"componentType":5126,
			"count":909,
			"type":"VEC3"
		},
		{
			"bufferView":54,
			"componentType":5126,
			"count":909,
			"type":"VEC2"
		},
		{
			"bufferView":55,
			"componentType":5123,
			"count":4026,
			"type":"SCALAR"
		},
		{
			"bufferView":56,
			"componentType":5126,
			"count":406,
			"max":[
				0.9157341718673706,
				0.3782879114151001,
				0.6236957311630249
			],
			"min":[
				-0.9033665060997009,
				-0.7490445375442505,
				-0.7549586892127991
			],
			"type":"VEC3"
		},
		{
			"bufferView":57,
			"componentType":5126,
			"count":406,
			"type":"VEC3"
		},
		{
			"bufferView":58,
			"componentType":5126,
			"count":406,
			"type":"VEC2"
		},
		{
			"bufferView":59,
			"componentType":5123,
			"count":2226,
			"type":"SCALAR"
		},
		{
			"bufferView":60,
			"componentType":5126,
			"count":1030,
			"max":[
				0.172591894865036,
				0.3642272353172302,
				0.46714669466018677
			],
			"min":[
				-0.6514186859130859,
				-0.26411885023117065,
				-0.27594953775405884
			],
			"type":"VEC3"
		},
		{
			"bufferView":61,
			"componentType":5126,
			"count":1030,
			"type":"VEC3"
		},
		{
			"bufferView":62,
			"componentType":5126,
			"count":1030,
			"type":"VEC2"
		},
		{
			"bufferView":63,
			"componentType":5123,
			"count":4488,
			"type":"SCALAR"
		},
		{
			"bufferView":64,
			"componentType":5126,
			"count":358,
			"max":[
				0.4211490750312805,
				0.3713122606277466,
				0.1464797407388687
			],
			"min":[
				-0.4230200946331024,
				-0.5677560567855835,
				-0.43793967366218567
			],
			"type":"VEC3"
		},
		{
			"bufferView":65,
			"componentType":5126,
			"count":358,
			"type":"VEC3"
		},
		{
			"bufferView":66,
			"componentType":5126,
			"count":358,
			"type":"VEC2"
		},
		{
			"bufferView":67,
			"componentType":5123,
			"count":1452,
			"type":"SCALAR"
		},
		{
			"bufferView":68,
			"componentType":5126,
			"count":27,
			"max":[
				0.09274952858686447,
				0.2702297568321228,
				0.056547295302152634
			],
			"min":[
				-0.10016010701656342,
				-0.21640607714653015,
				-0.1566503494977951
			],
			"type":"VEC3"
		},
		{
			"bufferView":69,
			"componentType":5126,
			"count":27,
			"type":"VEC3"
		},
		{
			"bufferView":70,
			"componentType":5126,
			"count":27,
			"type":"VEC2"
		},
		{
			"bufferView":71,
			"componentType":5123,
			"count":90,
			"type":"SCALAR"
		},
		{
			"bufferView":72,
			"componentType":5126,
			"count":27,
			"max":[
				0.3094201683998108,
				0.10735940933227539,
				0.23897026479244232
			],
			"min":[
				-0.050309523940086365,
				-0.4965103268623352,
				-0.07297911494970322
			],
			"type":"VEC3"
		},
		{
			"bufferView":73,
			"componentType":5126,
			"count":27,
			"type":"VEC3"
		},
		{
			"bufferView":74,
			"componentType":5126,
			"count":27,
			"type":"VEC2"
		},
		{
			"bufferView":75,
			"componentType":5123,
			"count":96,
			"type":"SCALAR"
		},
		{
			"bufferView":76,
			"componentType":5126,
			"count":19,
			"max":[
				0.20595134794712067,
				0.3345821499824524,
				0.048279374837875366
			],
			"min":[
				-0.10158661007881165,
				-0.40445172786712646,
				-0.2824868857860565
			],
			"type":"VEC3"
		},
		{
			"bufferView":77,
			"componentType":5126,
			"count":19,
			"type":"VEC3"
		},
		{
			"bufferView":78,
			"componentType":5126,
			"count":19,
			"type":"VEC2"
		},
		{
			"bufferView":79,
			"componentType":5123,
			"count":66,
			"type":"SCALAR"
		},
		{
			"bufferView":80,
			"componentType":5126,
			"count":35,
			"max":[
				0.09218846261501312,
				-0.020689841359853745,
				0.13678309321403503
			],
			"min":[
				-0.13643479347229004,
				-0.5176873803138733,
				-0.053681038320064545
			],
			"type":"VEC3"
		},
		{
			"bufferView":81,
			"componentType":5126,
			"count":35,
			"type":"VEC3"
		},
		{
			"bufferView":82,
			"componentType":5126,
			"count":35,
			"type":"VEC2"
		},
		{
			"bufferView":83,
			"componentType":5123,
			"count":135,
			"type":"SCALAR"
		},
		{
			"bufferView":84,
			"componentType":5126,
			"count":53,
			"max":[
				0.5726214647293091,
				0.10660910606384277,
				0.017578428611159325
			],
			"min":[
				0.14268909394741058,
				-0.8198424577713013,
				-0.2004605084657669
			],
			"type":"VEC3"
		},
		{
			"bufferView":85,
			"componentType":5126,
			"count":53,
			"type":"VEC3"
		},
		{
			"bufferView":86,
			"componentType":5126,
			"count":53,
			"type":"VEC2"
		},
		{
			"bufferView":87,
			"componentType":5123,
			"count":216,
			"type":"SCALAR"
		},
		{
			"bufferView":88,
			"componentType":5126,
			"count":21,
			"max":[
				0.1282603144645691,
				0.39016756415367126,
				0.0467318594455719
			],
			"min":[
				-0.0999750867486,
				-0.3789571523666382,
				-0.16041819751262665
			],
			"type":"VEC3"
		},
		{
			"bufferView":89,
			"componentType":5126,
			"count":21,
			"type":"VEC3"
		},
		{
			"bufferView":90,
			"componentType":5126,
			"count":21,
			"type":"VEC2"
		},
		{
			"bufferView":91,
			"componentType":5123,
			"count":72,
			"type":"SCALAR"
		},
		{
			"bufferView":92,
			"componentType":5126,
			"count":22,
			"max":[
				0.009178299456834793,
				0.03919258713722229,
				0.0016161715611815453
			],
			"min":[
				-0.3794429898262024,
				-0.15078963339328766,
				-0.6275315284729004
			],
			"type":"VEC3"
		},
		{
			"bufferView":93,
			"componentType":5126,
			"count":22,
			"type":"VEC3"
		},
		{
			"bufferView":94,
			"componentType":5126,
			"count":22,
			"type":"VEC2"
		},
		{
			"bufferView":95,
			"componentType":5123,
			"count":78,
			"type":"SCALAR"
		},
		{
			"bufferView":96,
			"componentType":5126,
			"count":466,
			"max":[
				1.6221520900726318,
				-0.07498770207166672,
				0.08344196528196335
			],
			"min":[
				-1.5900236368179321,
				-5.157671928405762,
				-0.8945421576499939
			],
			"type":"VEC3"
		},
		{
			"bufferView":97,
			"componentType":5126,
			"count":466,
			"type":"VEC3"
		},
		{
			"bufferView":98,
			"componentType":5126,
			"count":466,
			"type":"VEC2"
		},
		{
			"bufferView":99,
			"componentType":5123,
			"count":2118,
			"type":"SCALAR"
		},
		{
			"bufferView":100,
			"componentType":5126,
			"count":18,
			"max":[
				0.23781077563762665,
				-0.06492595374584198,
				0.07822529226541519
			],
			"min":[
				0.037801433354616165,
				-0.480624794960022,
				-0.06418045610189438
			],
			"type":"VEC3"
		},
		{
			"bufferView":101,
			"componentType":5126,
			"count":18,
			"type":"VEC3"
		},
		{
			"bufferView":102,
			"componentType":5126,
			"count":18,
			"type":"VEC2"
		},
		{
			"bufferView":103,
			"componentType":5123,
			"count":60,
			"type":"SCALAR"
		},
		{
			"bufferView":104,
			"componentType":5126,
			"count":25,
			"max":[
				0.4180746376514435,
				0.379074364900589,
				0.6139861941337585
			],
			"min":[
				-0.010927053168416023,
				-0.04169183224439621,
				0.0033676214516162872
			],
			"type":"VEC3"
		},
		{
			"bufferView":105,
			"componentType":5126,
			"count":25,
			"type":"VEC3"
		},
		{
			"bufferView":106,
			"componentType":5126,
			"count":25,
			"type":"VEC2"
		},
		{
			"bufferView":107,
			"componentType":5123,
			"count":90,
			"type":"SCALAR"
		},
		{
			"bufferView":108,
			"componentType":5126,
			"count":33,
			"max":[
				0.012986097484827042,
				0.013584483414888382,
				0.030366651713848114
			],
			"min":[
				-0.41956380009651184,
				-0.34711143374443054,
				-0.5709179043769836
			],
			"type":"VEC3"
		},
		{
			"bufferView":109,
			"componentType":5126,
			"count":33,
			"type":"VEC3"
		},
		{
			"bufferView":110,
			"componentType":5126,
			"count":33,
			"type":"VEC2"
		},
		{
			"bufferView":111,
			"componentType":5123,
			"count":120,
			"type":"SCALAR"
		},
		{
			"bufferView":112,
			"componentType":5126,
			"count":202,
			"max":[
				1.3416094779968262,
				0.7222463488578796,
				1.07317316532135
			],
			"min":[
				-0.9999999403953552,
				-4.6758575439453125,
				-1.021135926246643
			],
			"type":"VEC3"
		},
		{
			"bufferView":113,
			"componentType":5126,
			"count":202,
			"type":"VEC3"
		},
		{
			"bufferView":114,
			"componentType":5126,
			"count":202,
			"type":"VEC2"
		},
		{
			"bufferView":115,
			"componentType":5123,
			"count":864,
			"type":"SCALAR"
		},
		{
			"bufferView":116,
			"componentType":5126,
			"count":207,
			"max":[
				0.05195566639304161,
				0.046570636332035065,
				0.3078707158565521
			],
			"min":[
				-0.006634645164012909,
				-0.025250129401683807,
				0
			],
			"type":"VEC3"
		},
		{
			"bufferView":117,
			"componentType":5126,
			"count":207,
			"type":"VEC3"
		},
		{
			"bufferView":118,
			"componentType":5126,
			"count":207,
			"type":"VEC2"
		},
		{
			"bufferView":119,
			"componentType":5123,
			"count":960,
			"type":"SCALAR"
		}
	],
	"bufferViews":[
		{
			"buffer":0,
			"byteLength":13404,
			"byteOffset":0,
			"target":34962
		},
		{
			"buffer":0,
			"byteLength":13404,
			"byteOffset":13404,
			"target":34962
		},
		{
			"buffer":0,
			"byteLength":8936,
			"byteOffset":26808,
			"target":34962
		},
		{
			"buffer":0,
			"byteLength":9912,
			"byteOffset":35744,
			"target":34963
		},
		{
			"buffer":0,
			"byteLength":3864,
			"byteOffset":45656,
			"target":34962
		},
		{
			"buffer":0,
			"byteLength":3864,
			"byteOffset":49520,
			"target":34962
		},
		{
			"buffer":0,
			"byteLength":2576,
			"byteOffset":53384,
			"target":34962
		},
		{
			"buffer":0,
			"byteLength":3456,
			"byteOffset":55960,
			"target":34963
		},
		{
			"buffer":0,
			"byteLength":4800,
			"byteOffset":59416,
			"target":34962
		},
		{
			"buffer":0,
			"byteLength":4800,
			"byteOffset":64216,
			"target":34962
		},
		{
			"buffer":0,
			"byteLength":3200,
			"byteOffset":69016,
			"target":34962
		},
		{
			"buffer":0,
			"byteLength":3840,
			"byteOffset":72216,
			"target":34963
		},
		{
			"buffer":0,
			"byteLength":792,
			"byteOffset":76056,
			"target":34962
		},
		{
			"buffer":0,
			"byteLength":792,
			"byteOffset":76848,
			"target":34962
		},
		{
			"buffer":0,
			"byteLength":528,
			"byteOffset":77640,
			"target":34962
		},
		{
			"buffer":0,
			"byteLength":504,
			"byteOffset":78168,
			"target":34963
		},
		{
			"buffer":0,
			"byteLength":12864,
			"byteOffset":78672,
			"target":34962
		},
		{
			"buffer":0,
			"byteLength":12864,
			"byteOffset":91536,
			"target":34962
		},
		{
			"buffer":0,
			"byteLength":8576,
			"byteOffset":104400,
			"target":34962
		},
		{
			"buffer":0,
			"byteLength":7128,
			"byteOffset":112976,
			"target":34963
		},
		{
			"buffer":0,
			"byteLength":8688,
			"byteOffset":120104,
			"target":34962
		},
		{
			"buffer":0,
			"byteLength":8688,
			"byteOffset":128792,
			"target":34962
		},
		{
			"buffer":0,
			"byteLength":5792,
			"byteOffset":137480,
			"target":34962
		},
		{
			"buffer":0,
			"byteLength":2592,
			"byteOffset":143272,
			"target":34963
		},
		{
			"buffer":0,
			"byteLength":576,
			"byteOffset":145864,
			"target":34962
		},
		{
			"buffer":0,
			"byteLength":576,
			"byteOffset":146440,
			"target":34962
		},
		{
			"buffer":0,
			"byteLength":384,
			"byteOffset":147016,
			"target":34962
		},
		{
			"buffer":0,
			"byteLength":528,
			"byteOffset":147400,
			"target":34963
		},
		{
			"buffer":0,
			"byteLength":1872,
			"byteOffset":147928,
			"target":34962
		},
		{
			"buffer":0,
			"byteLength":1872,
			"byteOffset":149800,
			"target":34962
		},
		{
			"buffer":0,
			"byteLength":1248,
			"byteOffset":151672,
			"target":34962
		},
		{
			"buffer":0,
			"byteLength":1200,
			"byteOffset":152920,
			"target":34963
		},
		{
			"buffer":0,
			"byteLength":624,
			"byteOffset":154120,
			"target":34962
		},
		{
			"buffer":0,
			"byteLength":624,
			"byteOffset":154744,
			"target":34962
		},
		{
			"buffer":0,
			"byteLength":416,
			"byteOffset":155368,
			"target":34962
		},
		{
			"buffer":0,
			"byteLength":600,
			"byteOffset":155784,
			"target":34963
		},
		{
			"buffer":0,
			"byteLength":624,
			"byteOffset":156384,
			"target":34962
		},
		{
			"buffer":0,
			"byteLength":624,
			"byteOffset":157008,
			"target":34962
		},
		{
			"buffer":0,
			"byteLength":416,
			"byteOffset":157632,
			"target":34962
		},
		{
			"buffer":0,
			"byteLength":168,
			"byteOffset":158048,
			"target":34963
		},
		{
			"buffer":0,
			"byteLength":624,
			"byteOffset":158216,
			"target":34962
		},
		{
			"buffer":0,
			"byteLength":624,
			"byteOffset":158840,
			"target":34962
		},
		{
			"buffer":0,
			"byteLength":416,
			"byteOffset":159464,
			"target":34962
		},
		{
			"buffer":0,
			"byteLength":168,
			"byteOffset":159880,
			"target":34963
		},
		{
			"buffer":0,
			"byteLength":2148,
			"byteOffset":160048,
			"target":34962
		},
		{
			"buffer":0,
			"byteLength":2148,
			"byteOffset":162196,
			"target":34962
		},
		{
			"buffer":0,
			"byteLength":1432,
			"byteOffset":164344,
			"target":34962
		},
		{
			"buffer":0,
			"byteLength":1830,
			"byteOffset":165776,
			"target":34963
		},
		{
			"buffer":0,
			"byteLength":576,
			"byteOffset":167608,
			"target":34962
		},
		{
			"buffer":0,
			"byteLength":576,
			"byteOffset":168184,
			"target":34962
		},
		{
			"buffer":0,
			"byteLength":384,
			"byteOffset":168760,
			"target":34962
		},
		{
			"buffer":0,
			"byteLength":528,
			"byteOffset":169144,
			"target":34963
		},
		{
			"buffer":0,
			"byteLength":10908,
			"byteOffset":169672,
			"target":34962
		},
		{
			"buffer":0,
			"byteLength":10908,
			"byteOffset":180580,
			"target":34962
		},
		{
			"buffer":0,
			"byteLength":7272,
			"byteOffset":191488,
			"target":34962
		},
		{
			"buffer":0,
			"byteLength":8052,
			"byteOffset":198760,
			"target":34963
		},
		{
			"buffer":0,
			"byteLength":4872,
			"byteOffset":206812,
			"target":34962
		},
		{
			"buffer":0,
			"byteLength":4872,
			"byteOffset":211684,
			"target":34962
		},
		{
			"buffer":0,
			"byteLength":3248,
			"byteOffset":216556,
			"target":34962
		},
		{
			"buffer":0,
			"byteLength":4452,
			"byteOffset":219804,
			"target":34963
		},
		{
			"buffer":0,
			"byteLength":12360,
			"byteOffset":224256,
			"target":34962
		},
		{
			"buffer":0,
			"byteLength":12360,
			"byteOffset":236616,
			"target":34962
		},
		{
			"buffer":0,
			"byteLength":8240,
			"byteOffset":248976,
			"target":34962
		},
		{
			"buffer":0,
			"byteLength":8976,
			"byteOffset":257216,
			"target":34963
		},
		{
			"buffer":0,
			"byteLength":4296,
			"byteOffset":266192,
			"target":34962
		},
		{
			"buffer":0,
			"byteLength":4296,
			"byteOffset":270488,
			"target":34962
		},
		{
			"buffer":0,
			"byteLength":2864,
			"byteOffset":274784,
			"target":34962
		},
		{
			"buffer":0,
			"byteLength":2904,
			"byteOffset":277648,
			"target":34963
		},
		{
			"buffer":0,
			"byteLength":324,
			"byteOffset":280552,
			"target":34962
		},
		{
			"buffer":0,
			"byteLength":324,
			"byteOffset":280876,
			"target":34962
		},
		{
			"buffer":0,
			"byteLength":216,
			"byteOffset":281200,
			"target":34962
		},
		{
			"buffer":0,
			"byteLength":180,
			"byteOffset":281416,
			"target":34963
		},
		{
			"buffer":0,
			"byteLength":324,
			"byteOffset":281596,
			"target":34962
		},
		{
			"buffer":0,
			"byteLength":324,
			"byteOffset":281920,
			"target":34962
		},
		{
			"buffer":0,
			"byteLength":216,
			"byteOffset":282244,
			"target":34962
		},
		{
			"buffer":0,
			"byteLength":192,
			"byteOffset":282460,
			"target":34963
		},
		{
			"buffer":0,
			"byteLength":228,
			"byteOffset":282652,
			"target":34962
		},
		{
			"buffer":0,
			"byteLength":228,
			"byteOffset":282880,
			"target":34962
		},
		{
			"buffer":0,
			"byteLength":152,
			"byteOffset":283108,
			"target":34962
		},
		{
			"buffer":0,
			"byteLength":132,
			"byteOffset":283260,
			"target":34963
		},
		{
			"buffer":0,
			"byteLength":420,
			"byteOffset":283392,
			"target":34962
		},
		{
			"buffer":0,
			"byteLength":420,
			"byteOffset":283812,
			"target":34962
		},
		{
			"buffer":0,
			"byteLength":280,
			"byteOffset":284232,
			"target":34962
		},
		{
			"buffer":0,
			"byteLength":270,
			"byteOffset":284512,
			"target":34963
		},
		{
			"buffer":0,
			"byteLength":636,
			"byteOffset":284784,
			"target":34962
		},
		{
			"buffer":0,
			"byteLength":636,
			"byteOffset":285420,
			"target":34962
		},
		{
			"buffer":0,
			"byteLength":424,
			"byteOffset":286056,
			"target":34962
		},
		{
			"buffer":0,
			"byteLength":432,
			"byteOffset":286480,
			"target":34963
		},
		{
			"buffer":0,
			"byteLength":252,
			"byteOffset":286912,
			"target":34962
		},
		{
			"buffer":0,
			"byteLength":252,
			"byteOffset":287164,
			"target":34962
		},
		{
			"buffer":0,
			"byteLength":168,
			"byteOffset":287416,
			"target":34962
		},
		{
			"buffer":0,
			"byteLength":144,
			"byteOffset":287584,
			"target":34963
		},
		{
			"buffer":0,
			"byteLength":264,
			"byteOffset":287728,
			"target":34962
		},
		{
			"buffer":0,
			"byteLength":264,
			"byteOffset":287992,
			"target":34962
		},
		{
			"buffer":0,
			"byteLength":176,
			"byteOffset":288256,
			"target":34962
		},
		{
			"buffer":0,
			"byteLength":156,
			"byteOffset":288432,
			"target":34963
		},
		{
			"buffer":0,
			"byteLength":5592,
			"byteOffset":288588,
			"target":34962
		},
		{
			"buffer":0,
			"byteLength":5592,
			"byteOffset":294180,
			"target":34962
		},
		{
			"buffer":0,
			"byteLength":3728,
			"byteOffset":299772,
			"target":34962
		},
		{
			"buffer":0,
			"byteLength":4236,
			"byteOffset":303500,
			"target":34963
		},
		{
			"buffer":0,
			"byteLength":216,
			"byteOffset":307736,
			"target":34962
		},
		{
			"buffer":0,
			"byteLength":216,
			"byteOffset":307952,
			"target":34962
		},
		{
			"buffer":0,
			"byteLength":144,
			"byteOffset":308168,
			"target":34962
		},
		{
			"buffer":0,
			"byteLength":120,
			"byteOffset":308312,
			"target":34963
		},
		{
			"buffer":0,
			"byteLength":300,
			"byteOffset":308432,
			"target":34962
		},
		{
			"buffer":0,
			"byteLength":300,
			"byteOffset":308732,
			"target":34962
		},
		{
			"buffer":0,
			"byteLength":200,
			"byteOffset":309032,
			"target":34962
		},
		{
			"buffer":0,
			"byteLength":180,
			"byteOffset":309232,
			"target":34963
		},
		{
			"buffer":0,
			"byteLength":396,
			"byteOffset":309412,
			"target":34962
		},
		{
			"buffer":0,
			"byteLength":396,
			"byteOffset":309808,
			"target":34962
		},
		{
			"buffer":0,
			"byteLength":264,
			"byteOffset":310204,
			"target":34962
		},
		{
			"buffer":0,
			"byteLength":240,
			"byteOffset":310468,
			"target":34963
		},
		{
			"buffer":0,
			"byteLength":2424,
			"byteOffset":310708,
			"target":34962
		},
		{
			"buffer":0,
			"byteLength":2424,
			"byteOffset":313132,
			"target":34962
		},
		{
			"buffer":0,
			"byteLength":1616,
			"byteOffset":315556,
			"target":34962
		},
		{
			"buffer":0,
			"byteLength":1728,
			"byteOffset":317172,
			"target":34963
		},
		{
			"buffer":0,
			"byteLength":2484,
			"byteOffset":318900,
			"target":34962
		},
		{
			"buffer":0,
			"byteLength":2484,
			"byteOffset":321384,
			"target":34962
		},
		{
			"buffer":0,
			"byteLength":1656,
			"byteOffset":323868,
			"target":34962
		},
		{
			"buffer":0,
			"byteLength":1920,
			"byteOffset":325524,
			"target":34963
		}
	],
	"samplers":[
		{
			"magFilter":9729,
			"minFilter":9987
		}
	],
	"buffers":[
		{
			"byteLength":327444,
			"uri":"miku.bin"
		}
	]
}
